<svg width="22" height="22" viewBox="0 0 22 22" fill="none" xmlns="http://www.w3.org/2000/svg">
<path d="M10.8469 0.207122C5.09587 0.296997 0.492613 5.155 0.585562 11.0364C0.678512 16.9177 5.43301 21.6295 11.1841 21.5396C16.9351 21.4498 21.5384 16.5918 21.4454 10.7104C21.3525 4.82901 16.598 0.117246 10.8469 0.207122ZM11.1482 19.27C6.62091 19.3408 2.87784 15.6318 2.80466 11.0017C2.73149 6.3716 6.3555 2.54747 10.8828 2.47672C15.4101 2.40597 19.1532 6.11497 19.2263 10.7451C19.2995 15.3752 15.6755 19.1993 11.1482 19.27Z" fill="white"/>
<path d="M16.5219 10.4625L11.8435 10.5357L11.7526 4.76278C11.7449 4.27698 11.3549 3.88911 10.8816 3.89651C10.4082 3.90391 10.0306 4.30379 10.0383 4.78959L10.143 11.4421C10.1507 11.9279 10.5407 12.3158 11.0141 12.3084L16.5496 12.2219C17.0229 12.2145 17.4005 11.8146 17.3929 11.3288C17.3852 10.843 16.9952 10.4551 16.5219 10.4625Z" fill="white"/>
</svg>
