<svg width="17" height="18" viewBox="0 0 17 18" fill="none" xmlns="http://www.w3.org/2000/svg">
<path d="M16.0169 13.4145L13.5408 11.0966C13.2953 10.8761 12.9774 10.7664 12.6571 10.7915C12.3367 10.8167 12.0399 10.9747 11.832 11.2308L10.7351 12.5354L10.4952 12.4132C9.42456 11.9097 8.43045 11.2406 7.54608 10.4284C6.67463 9.59597 5.92511 8.6324 5.32229 7.56953C5.27391 7.48883 5.22765 7.41199 5.18157 7.33812L5.91632 6.46354L6.27841 6.03253C6.4946 5.78347 6.60764 5.45375 6.59285 5.11532C6.57807 4.77689 6.43666 4.45725 6.19949 4.22616L3.72331 1.90822C3.47798 1.68779 3.16031 1.5781 2.84009 1.60325C2.51986 1.62841 2.22328 1.78634 2.01551 2.04237L1.39871 2.77476L1.41775 2.79254C1.21186 3.11253 1.05145 3.46264 0.941552 3.83194C0.841042 4.16692 0.781255 4.51427 0.763611 4.86574C0.620417 7.57028 1.93379 9.95652 5.29469 13.1006C9.94134 17.4491 13.4389 16.8986 13.5893 16.8689C13.9191 16.8077 14.2397 16.7023 14.5434 16.5552C14.876 16.3954 15.1844 16.1853 15.4588 15.9316L15.4738 15.9446L16.0958 15.2199C16.3098 14.97 16.4215 14.6409 16.4067 14.3033C16.392 13.9658 16.252 13.6466 16.0169 13.4145Z" fill="white"/>
</svg>
