<svg width="17" height="16" viewBox="0 0 17 16" fill="none" xmlns="http://www.w3.org/2000/svg">
<path d="M16.0169 12.4145L13.5408 10.0966C13.2953 9.87609 12.9774 9.76639 12.6571 9.79155C12.3367 9.81671 12.0399 9.97468 11.832 10.2308L10.7351 11.5354L10.4952 11.4132C9.42456 10.9097 8.43045 10.2406 7.54608 9.42839C6.67463 8.59597 5.92511 7.6324 5.32229 6.56953C5.27391 6.48883 5.22765 6.41199 5.18157 6.33812L5.91632 5.46354L6.27841 5.03253C6.4946 4.78347 6.60764 4.45375 6.59285 4.11532C6.57807 3.77689 6.43666 3.45725 6.19949 3.22616L3.72331 0.908224C3.47798 0.68779 3.16031 0.5781 2.84009 0.603252C2.51986 0.628405 2.22328 0.786344 2.01551 1.04237L1.39871 1.77476L1.41775 1.79254C1.21186 2.11253 1.05145 2.46264 0.941552 2.83194C0.841042 3.16692 0.781255 3.51427 0.763611 3.86574C0.620417 6.57028 1.93379 8.95652 5.29469 12.1006C9.94134 16.4491 13.4389 15.8986 13.5893 15.8689C13.9191 15.8077 14.2397 15.7023 14.5434 15.5552C14.876 15.3954 15.1844 15.1853 15.4588 14.9316L15.4738 14.9446L16.0958 14.2199C16.3098 13.97 16.4215 13.6409 16.4067 13.3033C16.392 12.9658 16.252 12.6466 16.0169 12.4145V12.4145Z" fill="white"/>
</svg>
