<svg width="22" height="24" viewBox="0 0 22 24" fill="none" xmlns="http://www.w3.org/2000/svg">
<path d="M15.4705 9.93844C15.4402 9.582 15.0131 9.31135 14.5165 9.3339L5.25467 9.75435C4.75804 9.77689 4.38003 10.0841 4.41032 10.4405C4.44061 10.797 4.86775 11.0676 5.36438 11.0451L14.6262 10.6246C15.1228 10.6021 15.5008 10.2949 15.4705 9.93844Z" fill="white"/>
<path d="M5.25436 13.1779C4.76006 13.2026 4.38379 13.5403 4.41392 13.9322C4.44404 14.3241 4.86915 14.6218 5.36345 14.5971L10.9621 14.3173C11.4564 14.2926 11.8326 13.9549 11.8025 13.563C11.7724 13.1711 11.3473 12.8735 10.853 12.8982L5.25436 13.1779Z" fill="white"/>
<path d="M8.11937 21.1114L5.29147 21.2789C4.359 21.3341 3.55504 20.6163 3.49932 19.6787L2.61001 4.71539C2.55429 3.7778 3.26758 2.97008 4.20005 2.91486L14.5956 2.29918C15.5281 2.24395 16.332 2.96181 16.3878 3.8994L16.6985 9.12805C16.7264 9.59761 17.1276 9.95582 17.5946 9.92816C18.0616 9.90051 18.4175 9.49746 18.3896 9.0279L18.0789 3.79924C17.9674 1.92407 16.3595 0.48835 14.4946 0.598802L4.09899 1.21448C2.23405 1.32494 0.807466 2.94037 0.918912 4.81555L1.80822 19.7789C1.91967 21.654 3.52759 23.0897 5.39253 22.9793L8.22043 22.8118C8.68742 22.7842 9.04336 22.3811 9.01545 21.9115C8.98754 21.442 8.58637 21.0838 8.11937 21.1114Z" fill="white"/>
<path d="M20.2492 13.2676C19.1854 12.3446 17.5526 12.4404 16.6101 13.4804L12.1825 18.3547C12.0884 18.4582 12.022 18.5828 11.9891 18.7175L11.1663 22.0816C11.0933 22.3799 11.1921 22.6933 11.4241 22.8996C11.5978 23.0541 11.8257 23.1302 12.0537 23.1168C12.13 23.1123 12.2065 23.0978 12.2808 23.0728L15.6859 21.9312C15.826 21.8843 15.9514 21.8027 16.0497 21.6943L20.468 16.8287C21.4111 15.788 21.313 14.1905 20.2492 13.2676ZM14.9147 20.412L13.2017 20.9864L13.6106 19.3143L16.5981 16.0254L17.8845 17.1415L14.9147 20.412ZM19.1824 15.7123L19.0261 15.8843L17.7399 14.7685L17.8956 14.597C18.21 14.2501 18.7543 14.2182 19.1089 14.5258C19.4635 14.8335 19.4962 15.3659 19.1824 15.7123Z" fill="white"/>
<path d="M14.5105 5.77799L5.2488 6.19844C4.75218 6.22098 4.37417 6.52819 4.40446 6.88463C4.43475 7.24106 4.86188 7.51172 5.35851 7.48918L14.6202 7.06873C15.1168 7.04618 15.4949 6.73898 15.4646 6.38254C15.4343 6.0261 15.0071 5.75545 14.5105 5.77799Z" fill="white"/>
</svg>
