<svg width="12" height="18" viewBox="0 0 12 18" fill="none" xmlns="http://www.w3.org/2000/svg">
<path d="M5.89873 0.777258C2.76731 0.826173 0.261681 3.54562 0.31325 6.83935C0.377248 10.927 5.55336 16.8484 5.7737 17.0985C5.98067 17.3334 6.3355 17.3275 6.53465 17.0866C6.74706 16.8298 11.7353 10.7496 11.6713 6.66193C11.6196 3.36821 9.03012 0.728345 5.89873 0.777258ZM6.03931 9.75602C4.46381 9.78063 3.16098 8.45244 3.13504 6.79527C3.10909 5.1381 4.36974 3.76991 5.9452 3.7453C7.52067 3.72069 8.8235 5.04887 8.84945 6.70604C8.87539 8.36321 7.61477 9.73141 6.03931 9.75602Z" fill="white"/>
</svg>
