<svg width="20" height="20" viewBox="0 0 20 20" fill="none" xmlns="http://www.w3.org/2000/svg">
<g clip-path="url(#clip0_1955_522)">
<path d="M10.5488 15.1729L19.7738 5.92228C20.0759 5.6192 20.0754 5.12849 19.7723 4.82592C19.4692 4.52358 18.9782 4.52436 18.6759 4.82748L9.99997 13.5274L1.32406 4.82717C1.02172 4.52408 0.531057 4.5233 0.227934 4.8256C0.0759811 4.97728 3.78949e-06 5.17599 3.78081e-06 5.3747C3.77214e-06 5.57291 0.0754737 5.77084 0.226372 5.92224L9.45114 15.1729C9.59637 15.3188 9.79403 15.4008 9.99997 15.4008C10.2059 15.4008 10.4033 15.3186 10.5488 15.1729Z" fill="#3897F0"/>
</g>
<defs>
<clipPath id="clip0_1955_522">
<rect width="20" height="20" fill="white" transform="translate(20) rotate(90)"/>
</clipPath>
</defs>
</svg>
