<svg width="20" height="20" viewBox="0 0 20 20" fill="none" xmlns="http://www.w3.org/2000/svg">
<g clip-path="url(#clip0_1955_559)">
<path d="M10.5488 4.82713L19.7738 14.0777C20.0759 14.3808 20.0754 14.8715 19.7723 15.1741C19.4692 15.4764 18.9782 15.4756 18.6759 15.1725L9.99997 6.47255L1.32406 15.1728C1.02172 15.4759 0.531057 15.4767 0.227934 15.1744C0.0759811 15.0227 3.78949e-06 14.824 3.78081e-06 14.6253C3.77214e-06 14.4271 0.0754737 14.2292 0.226372 14.0778L9.45114 4.82713C9.59637 4.68116 9.79403 4.59924 9.99997 4.59924C10.2059 4.59924 10.4033 4.68139 10.5488 4.82713Z" fill="#FF7800"/>
</g>
<defs>
<clipPath id="clip0_1955_559">
<rect width="20" height="20" fill="white" transform="matrix(-4.37114e-08 -1 -1 4.37114e-08 20 20)"/>
</clipPath>
</defs>
</svg>
