<svg width="194" height="198" viewBox="0 0 194 198" fill="none" xmlns="http://www.w3.org/2000/svg">
<path d="M36.526 98.9743V74.1216C36.526 64.0714 44.5378 55.8929 54.3849 55.8929H85.2287V24.4146C85.2287 14.3645 93.2405 6.1875 103.088 6.1875H127.438C137.285 6.1875 145.299 14.3645 145.299 24.4146V55.8945H176.141C185.988 55.8945 194 64.0714 194 74.1216V98.9743C194 109.024 185.988 117.201 176.141 117.201H145.299V148.681C145.299 158.731 137.285 166.908 127.438 166.908H103.088C93.2405 166.908 85.2287 158.731 85.2287 148.681V117.201H54.3849C44.5378 117.201 36.526 109.024 36.526 98.9743V98.9743Z" fill="#FFE8D4"/>
<path d="M54.334 137.243C54.334 140.442 51.7867 143.043 48.6504 143.043C45.5126 143.043 42.9668 140.442 42.9668 137.243C42.9668 134.042 45.5126 131.442 48.6504 131.442C51.7867 131.442 54.334 134.042 54.334 137.243Z" fill="#FFE8D4"/>
<path d="M67.2666 144.817C70.4044 144.817 72.9502 147.415 72.9502 150.618C72.9502 153.817 70.4044 156.418 67.2666 156.418C64.1288 156.418 61.583 153.817 61.583 150.618C61.583 147.415 64.1288 144.817 67.2666 144.817Z" fill="#FFE8D4"/>
<path d="M18.6162 137.243C18.6162 140.447 21.162 143.043 24.2998 143.043C27.4391 143.043 29.9834 140.447 29.9834 137.243C29.9834 134.04 27.4391 131.442 24.2998 131.442C21.162 131.442 18.6162 134.04 18.6162 137.243Z" fill="#FFE8D4"/>
<path d="M36.4762 152.702C48.5627 152.702 58.3965 162.739 58.3965 175.076C58.3965 184.131 51.2224 191.761 42.0488 191.761H30.9021C21.7329 191.761 14.5544 184.137 14.5544 175.076C14.5544 162.739 24.3882 152.702 36.4762 152.702Z" fill="#FFE8D4"/>
<path d="M5.68359 144.817C8.82141 144.817 11.3672 147.415 11.3672 150.618C11.3672 153.817 8.82141 156.418 5.68359 156.418C2.54578 156.418 0 153.817 0 150.618C0 147.415 2.54578 144.817 5.68359 144.817Z" fill="#FFE8D4"/>
</svg>
