<svg width="22" height="20" viewBox="0 0 22 20" fill="none" xmlns="http://www.w3.org/2000/svg">
<path d="M21.5348 8.21459L11.2438 0.679602C11.1472 0.608907 11.0306 0.570801 10.9108 0.570801C10.7911 0.570801 10.6745 0.608907 10.5778 0.679602L0.285832 8.21459C0.224102 8.25754 0.171585 8.3124 0.131369 8.37594C0.0911533 8.43949 0.0640514 8.51043 0.0516577 8.58461C0.0392639 8.65878 0.0418286 8.73468 0.0592008 8.80785C0.0765729 8.88101 0.108402 8.94997 0.152815 9.01065C0.197228 9.07134 0.253329 9.12253 0.317817 9.16121C0.382305 9.1999 0.453878 9.22529 0.528326 9.23591C0.602774 9.24652 0.678593 9.24215 0.751323 9.22303C0.824054 9.20391 0.892227 9.17044 0.951832 9.12459L10.9098 1.8336L20.8678 9.12459C20.9887 9.20869 21.1377 9.24218 21.2829 9.21791C21.4281 9.19364 21.5581 9.11354 21.6451 8.99472C21.732 8.87589 21.7691 8.72778 21.7483 8.582C21.7275 8.43623 21.6505 8.30437 21.5338 8.21459H21.5348Z" fill="#FFA14D" fill-opacity="0.64"/>
<path d="M18.8082 9.25098C18.6586 9.25098 18.5152 9.3104 18.4094 9.41617C18.3036 9.52194 18.2442 9.66539 18.2442 9.81497V18.794H13.7312V13.894C13.7173 13.1551 13.414 12.4512 12.8866 11.9336C12.3592 11.4161 11.6497 11.1261 10.9107 11.1261C10.1717 11.1261 9.46227 11.4161 8.93484 11.9336C8.40741 12.4512 8.10413 13.1551 8.09022 13.894V18.794H3.57722V9.81497C3.57722 9.66539 3.5178 9.52194 3.41203 9.41617C3.30626 9.3104 3.1628 9.25098 3.01322 9.25098C2.86364 9.25098 2.72018 9.3104 2.61441 9.41617C2.50864 9.52194 2.44922 9.66539 2.44922 9.81497V19.3579C2.44922 19.5075 2.50864 19.651 2.61441 19.7568C2.72018 19.8625 2.86364 19.922 3.01322 19.922H8.65422C8.79614 19.9219 8.93281 19.8683 9.03698 19.7719C9.14114 19.6756 9.20515 19.5434 9.21622 19.402C9.21698 19.3873 9.21698 19.3726 9.21622 19.3579V13.893C9.21622 13.4441 9.39454 13.0136 9.71194 12.6962C10.0293 12.3788 10.4598 12.2005 10.9087 12.2005C11.3576 12.2005 11.7881 12.3788 12.1055 12.6962C12.4229 13.0136 12.6012 13.4441 12.6012 13.893V19.3579C12.6005 19.3723 12.6005 19.3866 12.6012 19.4009C12.6121 19.5426 12.676 19.675 12.7801 19.7716C12.8843 19.8682 13.0211 19.9219 13.1632 19.922H18.8042C18.9538 19.922 19.0973 19.8625 19.203 19.7568C19.3088 19.651 19.3682 19.5075 19.3682 19.3579V9.81497C19.3682 9.66608 19.3094 9.52323 19.2044 9.41757C19.0995 9.31192 18.9571 9.25203 18.8082 9.25098Z" fill="#FFA14D" fill-opacity="0.64"/>
</svg>
