<svg width="82" height="82" viewBox="0 0 82 82" fill="none" xmlns="http://www.w3.org/2000/svg">
<circle cx="41" cy="41" r="41" fill="#FFA14D"/>
<g clip-path="url(#clip0_1955_477)">
<path d="M56.416 46.75C59.5917 46.75 62.166 44.1756 62.166 41C62.166 37.8244 59.5917 35.25 56.416 35.25C53.2404 35.25 50.666 37.8244 50.666 41C50.666 44.1756 53.2404 46.75 56.416 46.75Z" fill="white"/>
<path d="M48.7506 39.0833C49.8092 39.0833 50.6673 38.2252 50.6673 37.1666C50.6673 36.1081 49.8092 35.25 48.7506 35.25C47.6921 35.25 46.834 36.1081 46.834 37.1666C46.834 38.2252 47.6921 39.0833 48.7506 39.0833Z" fill="white"/>
<path d="M52.5836 35.25C53.6422 35.25 54.5003 34.3919 54.5003 33.3334C54.5003 32.2749 53.6422 31.4167 52.5836 31.4167C51.5251 31.4167 50.667 32.2749 50.667 33.3334C50.667 34.3919 51.5251 35.25 52.5836 35.25Z" fill="white"/>
<path d="M60.2506 35.25C61.3092 35.25 62.1673 34.3919 62.1673 33.3334C62.1673 32.2749 61.3092 31.4167 60.2506 31.4167C59.1921 31.4167 58.334 32.2749 58.334 33.3334C58.334 34.3919 59.1921 35.25 60.2506 35.25Z" fill="white"/>
<path d="M64.0836 39.0833C65.1421 39.0833 66.0003 38.2252 66.0003 37.1666C66.0003 36.1081 65.1421 35.25 64.0836 35.25C63.0251 35.25 62.167 36.1081 62.167 37.1666C62.167 38.2252 63.0251 39.0833 64.0836 39.0833Z" fill="white"/>
<path d="M43.9581 60.1666C38.1386 60.1603 33.4227 55.4443 33.4164 49.625V42.9166H29.583V49.625C29.583 57.5641 36.0189 64 43.958 64C51.8971 64 58.333 57.5641 58.333 49.625H54.4997C54.4934 55.4443 49.7775 60.1603 43.9581 60.1666Z" fill="white"/>
<path d="M43 29.5V19.9166C43 18.8581 42.1419 18 41.0834 18H35.3334V21.8334H39.1667V29.5C39.1667 33.7342 35.7342 37.1666 31.5001 37.1666C27.2659 37.1666 23.8334 33.7342 23.8334 29.5V21.8334H27.6667V18H21.9167C20.8581 18 20 18.8581 20 19.9166V29.5C20 35.8512 25.1488 41 31.5 41C37.8512 41 43 35.8512 43 29.5Z" fill="white"/>
</g>
<defs>
<clipPath id="clip0_1955_477">
<rect width="46" height="46" fill="white" transform="translate(20 18)"/>
</clipPath>
</defs>
</svg>
