<svg width="30" height="24" viewBox="0 0 30 24" fill="none" xmlns="http://www.w3.org/2000/svg">
<path d="M19.8632 0L15 15.3318L10.1371 0C4.3522 1.98836 0 7.3822 0 13.5659C0 17.2904 1.51948 20.725 3.97772 23.2564H11.0283L11.7675 20.0512C3.34439 16.7509 4.93706 6.52425 7.9906 4.85493C8.35305 4.96392 13.6643 23.181 13.6643 23.181C13.7368 23.181 13.9725 23.181 14.2605 23.181C14.3214 23.181 14.5504 23.181 14.8359 23.181C14.9392 23.181 15.0507 23.181 15.1638 23.181C15.3577 23.181 15.5589 23.181 15.7388 23.181C16.0271 23.181 16.2625 23.181 16.3354 23.181C16.3354 23.181 21.647 4.96392 22.0091 4.85493C25.0629 6.52425 26.655 16.7509 18.2319 20.0512L18.9714 23.2564H26.022C28.4805 20.725 30 17.2904 30 13.5659C30 7.3822 25.6478 1.98836 19.8632 0Z" fill="#FF0000" fill-opacity="0.6"/>
</svg>
