<svg width="31" height="30" viewBox="0 0 31 30" fill="none" xmlns="http://www.w3.org/2000/svg">
<path d="M15.7072 0C12.7497 0 9.85864 0.879734 7.39959 2.52796C4.94054 4.17618 3.02394 6.51886 1.89216 9.25975C0.760385 12.0006 0.464261 15.0166 1.04124 17.9263C1.61821 20.8361 3.04237 23.5088 5.13362 25.6066C7.22488 27.7044 9.88929 29.133 12.7899 29.7118C15.6906 30.2905 18.6972 29.9935 21.4296 28.8582C24.1619 27.7229 26.4973 25.8003 28.1404 23.3335C29.7835 20.8668 30.6604 17.9667 30.6604 15C30.6604 11.0217 29.085 7.20644 26.2807 4.3934C23.4765 1.58035 19.673 0 15.7072 0V0ZM21.4119 7.63875H19.3439C17.724 7.63875 17.4087 8.41187 17.4087 9.54625V12.0462H21.276V15.9637H17.4131V26.02H13.3745V15.9662H10.0025V12.0487H13.3745V9.15937C13.3745 5.80625 15.4168 3.98062 18.3981 3.98062L21.4119 3.985V7.63875Z" fill="#EBF5FD"/>
</svg>
