<svg width="31" height="30" viewBox="0 0 31 30" fill="none" xmlns="http://www.w3.org/2000/svg">
<ellipse cx="15.8751" cy="15" rx="14.9533" ry="15" fill="#EBF5FD"/>
<path d="M15.8751 5C18.5836 5 18.9215 5.01 19.9842 5.06C21.0459 5.11 21.7686 5.277 22.4046 5.525C23.0626 5.779 23.6169 6.123 24.1711 6.67799C24.678 7.17789 25.0703 7.78258 25.3205 8.44999C25.5668 9.08698 25.7342 9.81298 25.7841 10.878C25.8309 11.944 25.8439 12.283 25.8439 15C25.8439 17.7169 25.8339 18.0559 25.7841 19.1219C25.7342 20.1869 25.5668 20.9119 25.3205 21.5499C25.071 22.2177 24.6787 22.8225 24.1711 23.3219C23.6726 23.8302 23.0699 24.2237 22.4046 24.4749C21.7696 24.7219 21.0459 24.8899 19.9842 24.9399C18.9215 24.9869 18.5836 24.9999 15.8751 24.9999C13.1665 24.9999 12.8286 24.9899 11.7659 24.9399C10.7042 24.8899 9.9815 24.7219 9.34549 24.4749C8.6799 24.2244 8.07699 23.8309 7.57902 23.3219C7.07201 22.8221 6.67976 22.2174 6.42961 21.5499C6.18239 20.9129 6.01591 20.1869 5.96606 19.1219C5.91921 18.0559 5.90625 17.7169 5.90625 15C5.90625 12.283 5.91622 11.944 5.96606 10.878C6.01591 9.81198 6.18239 9.08798 6.42961 8.44999C6.67907 7.78217 7.07141 7.17731 7.57902 6.67799C8.07713 6.16923 8.68 5.77573 9.34549 5.525C9.9815 5.277 10.7032 5.11 11.7659 5.06C12.8286 5.013 13.1665 5 15.8751 5ZM15.8751 9.99998C14.5531 9.99998 13.2853 10.5268 12.3506 11.4644C11.4158 12.4021 10.8907 13.6739 10.8907 15C10.8907 16.326 11.4158 17.5978 12.3506 18.5355C13.2853 19.4732 14.5531 19.9999 15.8751 19.9999C17.197 19.9999 18.4648 19.4732 19.3996 18.5355C20.3343 17.5978 20.8595 16.326 20.8595 15C20.8595 13.6739 20.3343 12.4021 19.3996 11.4644C18.4648 10.5268 17.197 9.99998 15.8751 9.99998ZM22.3548 9.74998C22.3548 9.41846 22.2235 9.10052 21.9898 8.8661C21.7561 8.63168 21.4392 8.49998 21.1087 8.49998C20.7782 8.49998 20.4613 8.63168 20.2276 8.8661C19.9939 9.10052 19.8626 9.41846 19.8626 9.74998C19.8626 10.0815 19.9939 10.3994 20.2276 10.6339C20.4613 10.8683 20.7782 11 21.1087 11C21.4392 11 21.7561 10.8683 21.9898 10.6339C22.2235 10.3994 22.3548 10.0815 22.3548 9.74998ZM15.8751 12C16.6682 12 17.4289 12.316 17.9898 12.8786C18.5506 13.4413 18.8657 14.2043 18.8657 15C18.8657 15.7956 18.5506 16.5587 17.9898 17.1213C17.4289 17.6839 16.6682 17.9999 15.8751 17.9999C15.0819 17.9999 14.3212 17.6839 13.7604 17.1213C13.1995 16.5587 12.8844 15.7956 12.8844 15C12.8844 14.2043 13.1995 13.4413 13.7604 12.8786C14.3212 12.316 15.0819 12 15.8751 12Z" fill="#1B274A"/>
</svg>
