<svg width="31" height="30" viewBox="0 0 31 30" fill="none" xmlns="http://www.w3.org/2000/svg">
<path d="M15.5392 0C12.5817 0 9.69067 0.879734 7.23162 2.52795C4.77257 4.17618 2.85597 6.51885 1.72419 9.25974C0.592417 12.0006 0.296292 15.0166 0.873267 17.9263C1.45024 20.8361 2.8744 23.5088 4.96565 25.6066C7.05691 27.7044 9.72132 29.133 12.622 29.7118C15.5226 30.2905 18.5292 29.9935 21.2616 28.8582C23.9939 27.7229 26.3293 25.8003 27.9724 23.3335C29.6155 20.8668 30.4925 17.9667 30.4925 15C30.4925 11.0217 28.917 7.20644 26.1128 4.3934C23.3085 1.58035 19.5051 0 15.5392 0V0ZM23.1243 16.625C23.8459 17.282 24.5334 17.9759 25.1841 18.7037C25.4679 19.0297 25.7151 19.386 25.9211 19.7662C26.2052 20.3187 25.9486 20.925 25.4557 20.9581L22.3928 20.9581C22.0283 20.9854 21.6624 20.9277 21.3239 20.7894C20.9853 20.6512 20.6833 20.4362 20.4414 20.1612C20.0177 19.7287 19.6246 19.2669 19.2165 18.82C19.0546 18.6327 18.8693 18.4671 18.6651 18.3275C18.5877 18.2591 18.495 18.2105 18.3949 18.1857C18.2948 18.161 18.1902 18.1609 18.0901 18.1855C17.9899 18.21 17.8971 18.2585 17.8197 18.3267C17.7422 18.395 17.6823 18.481 17.6451 18.5775C17.4282 19.0252 17.3177 19.5172 17.3224 20.015C17.2887 20.7394 17.0732 20.9287 16.3467 20.9631C14.8248 21.0823 13.3012 20.7535 11.9629 20.0169C10.7961 19.3121 9.79083 18.3682 9.01273 17.2469C7.47539 15.0778 6.1737 12.7499 5.12987 10.3031C4.88501 9.75562 5.06382 9.46312 5.66569 9.45187C6.66258 9.4325 7.66507 9.435 8.66507 9.45187C8.85194 9.4541 9.03328 9.51584 9.18289 9.62818C9.33251 9.74051 9.44267 9.89764 9.49747 10.0769C10.028 11.4107 10.7102 12.6787 11.5305 13.8556C11.7349 14.1798 11.9953 14.4649 12.2993 14.6975C12.3585 14.7587 12.4333 14.8026 12.5155 14.8243C12.5978 14.846 12.6844 14.8448 12.766 14.8207C12.8476 14.7966 12.921 14.7507 12.9785 14.6878C13.0359 14.6248 13.0751 14.5474 13.0919 14.4637C13.1921 14.2104 13.2516 13.9427 13.2682 13.6706C13.3607 12.7461 13.3443 11.8138 13.2196 10.8931C13.2006 10.6302 13.0927 10.3816 12.9138 10.1884C12.735 9.99525 12.4958 9.86903 12.2358 9.83062C11.9436 9.775 11.9866 9.66625 12.1286 9.49875C12.2341 9.3483 12.3753 9.22664 12.5395 9.14478C12.7036 9.06293 12.8856 9.02347 13.0688 9.03L16.5299 9.03C17.0757 9.1375 17.1978 9.38312 17.2719 9.93437L17.2719 13.7925C17.2657 14.0056 17.3785 14.6381 17.7604 14.7775C18.0663 14.8787 18.2682 14.6325 18.4514 14.4381C19.248 13.5399 19.9056 12.5267 20.4021 11.4325C20.6358 10.9562 20.8383 10.4637 21.0333 9.97062C21.0815 9.80395 21.1859 9.65922 21.3286 9.56109C21.4713 9.46297 21.6435 9.41752 21.8158 9.4325L25.1486 9.43625C25.2473 9.43363 25.3461 9.43948 25.4439 9.45375C26.0046 9.55 26.1598 9.7925 25.9859 10.3425C25.6703 11.1768 25.2231 11.9549 24.6613 12.6469C24.1043 13.4187 23.5105 14.1644 22.9591 14.94C22.4551 15.65 22.495 16.0069 23.1243 16.625Z" fill="#EBF5FD"/>
</svg>
